<svg width="50" height="50" viewBox="0 0 50 50" fill="none" xmlns="http://www.w3.org/2000/svg">
<circle cx="25" cy="25" r="25" fill="#154A92"/>
<path d="M35.6473 12H17.7502L16.5956 14.6847L12.1044 25.1271L7 36.9974H14.7501L15.9406 34.2196L22.25 19.499H42.8672C41.4803 16.2419 38.9069 13.6094 35.6473 12Z" fill="white"/>
<path d="M43.4803 21.2483H23.25L17.0726 35.1464L16.2498 36.9948H23.7484L27.7505 27.2488H43.8314C43.9445 26.5383 44.0008 25.8201 43.9999 25.1007C44.0019 23.7992 43.8271 22.5033 43.4803 21.2483Z" fill="white"/>
<path d="M28.9961 28.7485L25.4963 37H35.2837C39.2891 35.4983 42.3383 32.6954 43.4943 28.7485H28.9961Z" fill="white"/>
</svg>
